<svg width="10" height="16" viewBox="0 0 10 16" fill="none" xmlns="http://www.w3.org/2000/svg">
<path d="M6.83366 0.395813C5.81147 0.395813 4.83115 0.801876 4.10835 1.52467C3.38556 2.24747 2.97949 3.22779 2.97949 4.24998V6.39581H0.916992C0.813439 6.39581 0.729492 6.47976 0.729492 6.58331V9.41665C0.729492 9.5202 0.813439 9.60415 0.916992 9.60415H2.97949V15.4166C2.97949 15.5202 3.06344 15.6041 3.16699 15.6041H6.00033C6.10388 15.6041 6.18783 15.5202 6.18783 15.4166V9.60415H8.2686C8.35463 9.60415 8.42963 9.54559 8.4505 9.46212L9.15883 6.62879C9.18842 6.51045 9.09891 6.39581 8.97693 6.39581H6.18783V4.24998C6.18783 4.07869 6.25587 3.91442 6.37699 3.79331C6.4981 3.67219 6.66237 3.60415 6.83366 3.60415H9.00033C9.10388 3.60415 9.18783 3.5202 9.18783 3.41665V0.583313C9.18783 0.47976 9.10388 0.395813 9.00033 0.395813H6.83366Z" fill="white"/>
</svg>
