<svg width="20" height="20" viewBox="0 0 20 20" fill="none" xmlns="http://www.w3.org/2000/svg">
<path d="M4.16984 5.83331H4.14567C3.88979 5.8493 3.63337 5.8123 3.39245 5.72461C3.15154 5.63692 2.93132 5.50043 2.74559 5.3237C2.55986 5.14697 2.41262 4.93379 2.31308 4.69752C2.21355 4.46125 2.16387 4.20698 2.16714 3.95062C2.17042 3.69426 2.22659 3.44134 2.33214 3.2077C2.43768 2.97405 2.59033 2.76471 2.78051 2.59279C2.9707 2.42086 3.19434 2.29005 3.43742 2.20855C3.6805 2.12705 3.93779 2.09661 4.19317 2.11914C4.44906 2.10127 4.70587 2.13644 4.94753 2.22246C5.18918 2.30847 5.41047 2.44348 5.59751 2.61901C5.78455 2.79454 5.93331 3.00682 6.03448 3.24253C6.13565 3.47825 6.18704 3.73232 6.18543 3.98882C6.18382 4.24532 6.12924 4.49872 6.02512 4.73315C5.921 4.96757 5.76957 5.17796 5.58034 5.35113C5.39111 5.5243 5.16815 5.65651 4.92543 5.73948C4.68272 5.82246 4.42548 5.8544 4.16984 5.83331ZM2.51484 8.33331H5.84817V18.3333H2.51484V8.33331ZM14.5982 8.33331C14.0365 8.33483 13.4824 8.46326 12.9774 8.70901C12.4723 8.95476 12.0293 9.31147 11.6815 9.75248V8.33331H8.34817V18.3333H11.6815V13.75C11.6815 13.308 11.8571 12.884 12.1697 12.5715C12.4822 12.2589 12.9061 12.0833 13.3482 12.0833C13.7902 12.0833 14.2141 12.2589 14.5267 12.5715C14.8392 12.884 15.0148 13.308 15.0148 13.75V18.3333H18.3482V12.0833C18.3482 11.0887 17.9531 10.1349 17.2498 9.43166C16.5466 8.7284 15.5927 8.33331 14.5982 8.33331Z" fill="white"/>
</svg>
