<svg width="208" height="80" viewBox="0 0 208 80" fill="none" xmlns="http://www.w3.org/2000/svg">
<path d="M28.954 69.538C28.5818 68.9286 28.4065 68.206 28.4548 67.4803C28.5031 66.7547 28.7724 66.0658 29.2217 65.5186C32.0879 62.0517 40.0695 55.7181 49.1849 56.9846C44.6785 60.9647 42.2033 63.5337 40.7714 65.7076C35.4973 65.7076 31.894 74.0441 32.4797 75.8229C31.4421 73.6434 30.2641 71.5434 28.954 69.538ZM15.3995 52.4247C11.9468 43.8651 52.4621 32.6458 61.0856 35.1088C61.3087 35.2327 61.5178 35.3833 61.709 35.5577C61.9173 35.686 63.7466 38.6211 63.9269 38.7912C58.9742 42.3335 58.2602 46.3683 54.8283 49.8232C48.0567 50.7469 20.5758 54.7081 22.9524 60.3969C20.7116 57.4565 18.1792 54.7836 15.3995 52.4247ZM4.19434 36.442C8.47961 33.7738 9.84019 32.8818 12.8162 29.8074C20.6688 26.0181 40.3916 22.0012 47.7161 23.2703C49.6328 27.2675 50.7851 27.6806 54.5775 30.3334C46.4373 29.2413 14.6735 35.2627 18.5838 38.4663L4.19434 36.442ZM23.5342 16.5015C25.3611 13.1842 27.4604 12.2913 30.1183 11.4242C31.8747 10.852 33.6576 10.4253 35.0686 10.0901C36.2436 9.8967 37.3931 9.55626 38.4933 9.07581C38.82 9.9027 39.2691 10.6682 39.8235 11.3429C42.5062 14.278 40.6352 18.2118 36.8283 18.5266C30.9156 19.0123 25.0494 19.2663 20.4019 21.7139L19.9917 21.7404C21.9965 19.7033 22.3282 18.6925 23.5342 16.5015Z" fill="#64D1F5"/>
<path d="M33.3714 77.2497L33.2272 77.1223C32.647 76.5979 32.1321 75.9964 31.6951 75.3324C30.8434 73.3774 28.49 69.074 28.49 68.2342C29.1118 70.2918 31.0108 70.4877 33.5381 71.3916C34.3717 71.638 35.1765 71.9843 35.9371 72.4238L37.2304 69.9857L39.3274 77.8535L31.9187 80L33.3714 77.2497ZM24.5196 62.6738C21.2344 59.9209 19.014 56.5215 16.2568 53.5882C15.7049 53.1284 15.3335 52.4655 15.2151 51.729C16.4924 55.414 38.8138 57.8223 49.1584 56.79C49.3031 56.7906 49.4443 56.8387 49.5625 56.9279C49.6808 57.017 49.7705 57.1429 49.8194 57.2883C49.8684 57.4338 49.8742 57.5917 49.836 57.7408C49.7979 57.8899 49.7177 58.0228 49.6063 58.1216C46.3595 61.1361 41.3578 65.3343 40.7665 65.7071C37.0942 65.7063 28.4996 65.7191 24.5196 62.6738ZM1.15015 41.8002C0.0123268 40.8415 -0.662355 38.4649 0.984286 37.0539C5.77357 32.9626 9.79041 31.4523 12.8153 29.8044C6.92101 35.8651 21.0685 39.3826 35.615 39.9495C49.8603 40.502 64.4941 38.1964 61.0919 35.1109C61.0919 35.1109 63.3219 36.3825 68.5511 39.5391C71.2065 41.1417 69.8075 43.6902 66.9293 45.3082C59.2481 49.6252 49.7241 51.2313 40.2865 51.2313C22.9491 51.2304 5.90658 45.8076 1.15015 41.8002ZM18.7223 27.2234C18.3831 27.0332 18.0887 26.7634 17.8614 26.4343C17.634 26.1052 17.4795 25.7253 17.4095 25.3232C17.3395 24.9211 17.3559 24.5074 17.4575 24.113C17.559 23.7187 17.743 23.3541 17.9956 23.0466C20.3874 20.115 22.5228 17.3852 24.6831 14.7435C21.1574 19.058 43.7873 21.763 47.039 21.0617C49.4717 23.7983 52.309 26.7804 54.8699 29.2143C55.0196 29.3568 55.1289 29.5413 55.1854 29.7468C55.2419 29.9522 55.2434 30.1705 55.1895 30.3768C55.1357 30.5831 55.0289 30.7691 54.881 30.9139C54.7332 31.0587 54.5503 31.1563 54.3531 31.1958C51.4748 31.6591 48.5656 31.8674 45.6551 31.8184C36.4516 31.8184 24.345 30.3474 18.7223 27.2234ZM35.4379 11.6768L35.0934 11.6058L34.8089 11.5511V11.5443C33.6574 11.2981 32.539 10.8999 31.4796 10.359C30.0148 9.60811 29.2096 8.7914 29.0757 7.92252L27.7568 9.86552L26.4243 1.32213L32.1855 0.374575L32.1951 0.342078L32.1863 0.371154L34.4604 0L32.825 2.40652C33.4893 3.01306 34.2165 3.53643 34.9924 3.96639L35.0197 3.98264C35.8754 4.50687 36.5589 4.61121 36.9892 5.55962L37.0694 5.74434C37.0982 5.80078 39.5822 10.7087 40.5389 12.2686C40.8696 12.846 41.0543 13.505 41.0749 14.1813C41.0956 14.8577 40.9515 15.5281 40.6567 16.1273C40.6567 16.1273 42.0918 13.1016 35.4379 11.6768Z" fill="#334F65"/>
<path d="M199.722 69.9999L198.573 64.8267H189.914L188.759 69.9999H180.476L188.51 39.3213H200.006L208 69.9999H199.722ZM191.522 57.5506H196.916L194.278 45.8038H194.157L191.522 57.5506ZM170.465 69.9999V39.3213H178.378V69.9999H170.465ZM142.122 69.9999V39.3213H154.362C162.067 39.3213 167.18 45.4581 167.18 54.6606C167.18 63.863 162.067 69.9999 154.362 69.9999H142.122ZM149.991 62.6804H153.7C156.915 62.6804 158.892 59.6558 158.892 54.6595C158.892 49.6631 156.915 46.6375 153.7 46.6375H149.991V62.6804ZM118.887 69.9999V39.3213H139.122V46.6363H126.801V51.1937H136.693V57.9885H126.801V62.6781H139.122V69.9976L118.887 69.9999ZM107.156 69.9999V54.1759H106.99L102.084 63.5129H98.7063L93.8017 54.1759H93.6784V69.9999H85.7649V39.3213H93.3084L100.397 52.821L107.484 39.3213H115.027V69.9999H107.156ZM192.631 29.2607V24.5244C194.573 25.3368 196.635 25.7811 198.721 25.8371C200.411 25.8371 201.35 25.3525 201.35 24.4955C201.35 21.9556 192.281 23.4684 192.281 15.8788C192.285 12.223 195.104 9.99988 199.77 9.99988C201.777 10.0026 203.764 10.4177 205.623 11.2226V15.9633C203.917 15.2088 202.101 14.774 200.256 14.6784C198.539 14.6784 197.601 15.193 197.601 16.0189C197.601 18.4454 206.668 17.1616 206.668 24.3555C206.668 28.2058 203.798 30.5468 198.995 30.5468C196.811 30.6109 194.64 30.1722 192.631 29.2607ZM176.911 29.2607V24.5244C178.853 25.3368 180.914 25.7811 183.001 25.8371C184.692 25.8371 185.63 25.3525 185.63 24.4955C185.63 21.9556 176.561 23.4684 176.561 15.8788C176.566 12.223 179.382 9.99988 184.05 9.99988C186.057 10.0026 188.044 10.4177 189.902 11.2226V15.9633C188.196 15.209 186.38 14.7746 184.534 14.6795C182.817 14.6795 181.878 15.1941 181.878 16.02C181.878 18.4465 190.945 17.1627 190.945 24.3566C190.945 28.207 188.076 30.5479 183.272 30.5479C181.091 30.6107 178.922 30.1716 176.915 29.2607H176.911ZM120.067 29.2607V24.5244C122.011 25.3376 124.075 25.7819 126.163 25.8371C127.854 25.8371 128.793 25.3525 128.793 24.4955C128.793 21.9556 119.723 23.4684 119.723 15.8788C119.721 12.223 122.539 9.99988 127.208 9.99988C129.215 10.0027 131.202 10.4179 133.061 11.2226V15.9633C131.354 15.2087 129.536 14.7744 127.69 14.6795C125.973 14.6795 125.034 15.1941 125.034 16.02C125.034 18.4465 134.102 17.1627 134.102 24.3566C134.102 28.207 131.232 30.5479 126.429 30.5479C124.247 30.6107 122.078 30.1716 120.071 29.2607H120.067ZM101.882 23.1828V10.2855H107.038V22.7548C106.98 23.1561 107.01 23.5664 107.128 23.9526C107.246 24.3389 107.447 24.6904 107.716 24.979C107.984 25.2676 108.313 25.4852 108.675 25.6144C109.037 25.7435 109.422 25.7806 109.8 25.7227C110.178 25.7807 110.564 25.7438 110.926 25.6147C111.288 25.4856 111.616 25.2681 111.885 24.9795C112.154 24.6909 112.355 24.3394 112.473 23.953C112.591 23.5667 112.622 23.1563 112.564 22.7548V10.2855H117.715V23.1794C117.715 27.9724 114.951 30.5412 109.8 30.5412C104.649 30.5412 101.882 27.9758 101.882 23.1828ZM161.975 30.2589V10.2855H175.144V15.0507H167.124V18.0186H173.561V22.4414H167.124V25.4937H175.144V30.26L161.975 30.2589ZM154.6 30.2589L148.668 19.2735H148.588V30.26H143.598V10.2855H148.424L154.354 21.2142H154.458V10.2855H159.448V30.26L154.6 30.2589ZM135.956 30.2589V10.2855H141.108V30.26L135.956 30.2589ZM85.0908 30.26V10.2855H93.0576C96.8137 10.2855 99.3626 12.2863 99.3626 15.3364C99.3918 16.3726 99.1113 17.392 98.5614 18.248C98.0116 19.104 97.2208 19.7526 96.3026 20.1005V20.1872C97.3559 20.4505 98.2925 21.0896 98.9565 21.9981C99.6206 22.9066 99.9719 24.0297 99.9521 25.1802C99.9521 28.3181 97.3498 30.26 93.0545 30.26H85.0908ZM90.1334 25.6938H92.6563C93.8905 25.6938 94.7214 25.0379 94.7214 24.0098C94.7238 23.7668 94.6774 23.5261 94.5853 23.3037C94.4932 23.0813 94.3575 22.8824 94.1874 22.7203C94.0172 22.5581 93.8165 22.4365 93.5986 22.3635C93.3807 22.2905 93.1506 22.2678 92.9238 22.2969H90.1334V25.6938ZM90.1334 18.2464H92.6291C92.8501 18.2615 93.0715 18.2259 93.2783 18.1419C93.4852 18.0579 93.6726 17.9276 93.8279 17.7597C93.9831 17.5918 94.1026 17.3903 94.1782 17.169C94.2537 16.9476 94.2836 16.7116 94.2657 16.4768C94.2693 16.2524 94.2285 16.0296 94.146 15.823C94.0636 15.6163 93.9413 15.4303 93.787 15.2771C93.6328 15.1238 93.45 15.0067 93.2506 14.9332C93.0511 14.8598 92.8394 14.8317 92.6291 14.8507H90.1334V18.2464Z" fill="#334F65"/>
</svg>
